<svg 
 fill="none"  xmlns="http://www.w3.org/2000/svg" style="display: none">

<symbol id="location" viewBox="0 0 15 16" >
<path d="M7.5 5.79688C6.06445 5.79688 4.92188 6.96875 4.92188 8.375C4.92188 9.81055 6.06445 10.9531 7.5 10.9531C8.90625 10.9531 10.0781 9.81055 10.0781 8.375C10.0781 6.96875 8.90625 5.79688 7.5 5.79688ZM7.5 9.54688C6.82617 9.54688 6.32812 9.04883 6.32812 8.375C6.32812 7.73047 6.82617 7.20312 7.5 7.20312C8.14453 7.20312 8.67188 7.73047 8.67188 8.375C8.67188 9.04883 8.14453 9.54688 7.5 9.54688ZM14.5312 7.67188H13.0664C12.7441 5.15234 10.7227 3.13086 8.20312 2.80859V1.34375C8.20312 1.10938 7.96875 0.875 7.73438 0.875H7.26562C7.00195 0.875 6.79688 1.10938 6.79688 1.34375V2.80859C4.24805 3.13086 2.22656 5.15234 1.9043 7.67188H0.46875C0.205078 7.67188 0 7.90625 0 8.14062V8.60938C0 8.87305 0.205078 9.07812 0.46875 9.07812H1.9043C2.22656 11.627 4.24805 13.6484 6.79688 13.9707V15.4062C6.79688 15.6699 7.00195 15.875 7.26562 15.875H7.73438C7.96875 15.875 8.20312 15.6699 8.20312 15.4062V13.9707C10.7227 13.6484 12.7441 11.627 13.0664 9.07812H14.5312C14.7656 9.07812 15 8.87305 15 8.60938V8.14062C15 7.90625 14.7656 7.67188 14.5312 7.67188ZM7.5 12.5938C5.15625 12.5938 3.28125 10.7188 3.28125 8.375C3.28125 6.06055 5.15625 4.15625 7.5 4.15625C9.81445 4.15625 11.7188 6.06055 11.7188 8.375C11.7188 10.7188 9.81445 12.5938 7.5 12.5938Z" fill="#22262A"/>
</symbol>


 <symbol id='linkedin' viewBox="0 0 32 32">
<path fill-rule="evenodd"  fill="#000"
 d="M16.0,31.999 C7.163,31.999 0.0,24.836 0.0,15.999 C0.0,7.163 7.163,0.0 16.0,0.0 C24.836,0.0 32.0,7.163 32.0,15.999 C32.0,24.836 24.836,31.999 16.0,31.999 ZM9.788,7.468 C9.467,7.156 9.82,6.999 8.633,6.999 C8.185,6.999 7.802,7.153 7.484,7.459 C7.166,7.765 7.7,8.135 7.7,8.568 C7.7,9.18 7.167,9.401 7.488,9.717 C7.809,10.32 8.197,10.190 8.652,10.190 C9.95,10.190 9.475,10.35 9.792,9.726 C10.110,9.416 10.269,9.42 10.269,8.603 C10.269,8.159 10.109,7.780 9.788,7.468 ZM10.274,10.993 L7.0,10.993 L7.0,22.999 L10.274,22.999 L10.274,10.993 ZM25.0,15.437 C25.0,14.17 24.510,12.944 23.648,12.219 C22.624,11.364 21.613,10.938 20.144,10.938 C19.428,10.938 18.963,11.53 18.279,11.284 C17.594,11.516 16.848,12.2 16.4,12.593 L16.4,10.993 L12.730,10.993 L12.730,22.999 L15.987,22.997 L15.987,18.640 C15.987,17.357 16.42,16.523 16.150,16.138 C16.359,15.398 16.732,14.819 17.271,14.400 C17.810,13.980 18.456,13.771 19.208,13.771 C19.788,13.771 20.274,13.897 20.668,14.151 C21.63,14.404 21.339,14.771 21.497,15.255 C21.656,15.738 21.735,16.715 21.735,18.187 L21.735,22.997 L25.0,22.997 L25.0,15.437 Z"/>
</symbol>

<symbol id="icon-instagram" viewBox="0 0 32 32">
<path  fill="#000" d="M16 2.881c4.275 0 4.781 0.019 6.462 0.094 1.563 0.069 2.406 0.331 2.969 0.55 0.744 0.288 1.281 0.638 1.837 1.194 0.563 0.563 0.906 1.094 1.2 1.838 0.219 0.563 0.481 1.412 0.55 2.969 0.075 1.688 0.094 2.194 0.094 6.463s-0.019 4.781-0.094 6.463c-0.069 1.563-0.331 2.406-0.55 2.969-0.288 0.744-0.637 1.281-1.194 1.837-0.563 0.563-1.094 0.906-1.837 1.2-0.563 0.219-1.413 0.481-2.969 0.55-1.688 0.075-2.194 0.094-6.463 0.094s-4.781-0.019-6.463-0.094c-1.563-0.069-2.406-0.331-2.969-0.55-0.744-0.288-1.281-0.637-1.838-1.194-0.563-0.563-0.906-1.094-1.2-1.837-0.219-0.563-0.481-1.413-0.55-2.969-0.075-1.688-0.094-2.194-0.094-6.463s0.019-4.781 0.094-6.463c0.069-1.563 0.331-2.406 0.55-2.969 0.288-0.744 0.638-1.281 1.194-1.838 0.563-0.563 1.094-0.906 1.838-1.2 0.563-0.219 1.412-0.481 2.969-0.55 1.681-0.075 2.188-0.094 6.463-0.094zM16 0c-4.344 0-4.887 0.019-6.594 0.094-1.7 0.075-2.869 0.35-3.881 0.744-1.056 0.412-1.95 0.956-2.837 1.85-0.894 0.888-1.438 1.781-1.85 2.831-0.394 1.019-0.669 2.181-0.744 3.881-0.075 1.713-0.094 2.256-0.094 6.6s0.019 4.887 0.094 6.594c0.075 1.7 0.35 2.869 0.744 3.881 0.413 1.056 0.956 1.95 1.85 2.837 0.887 0.887 1.781 1.438 2.831 1.844 1.019 0.394 2.181 0.669 3.881 0.744 1.706 0.075 2.25 0.094 6.594 0.094s4.888-0.019 6.594-0.094c1.7-0.075 2.869-0.35 3.881-0.744 1.050-0.406 1.944-0.956 2.831-1.844s1.438-1.781 1.844-2.831c0.394-1.019 0.669-2.181 0.744-3.881 0.075-1.706 0.094-2.25 0.094-6.594s-0.019-4.887-0.094-6.594c-0.075-1.7-0.35-2.869-0.744-3.881-0.394-1.063-0.938-1.956-1.831-2.844-0.887-0.887-1.781-1.438-2.831-1.844-1.019-0.394-2.181-0.669-3.881-0.744-1.712-0.081-2.256-0.1-6.6-0.1v0z"></path>
<path d="M16 7.781c-4.537 0-8.219 3.681-8.219 8.219s3.681 8.219 8.219 8.219 8.219-3.681 8.219-8.219c0-4.537-3.681-8.219-8.219-8.219zM16 21.331c-2.944 0-5.331-2.387-5.331-5.331s2.387-5.331 5.331-5.331c2.944 0 5.331 2.387 5.331 5.331s-2.387 5.331-5.331 5.331z"></path>
<path d="M26.462 7.456c0 1.060-0.859 1.919-1.919 1.919s-1.919-0.859-1.919-1.919c0-1.060 0.859-1.919 1.919-1.919s1.919 0.859 1.919 1.919z"></path>
</symbol>

<symbol id='facebook' viewBox="0 0 32 32">
<path fill-rule="evenodd"  fill="#000"
 d="M16.0,31.999 C7.163,31.999 0.0,24.836 0.0,15.999 C0.0,7.163 7.163,0.0 16.0,0.0 C24.836,0.0 32.0,7.163 32.0,15.999 C32.0,24.836 24.836,31.999 16.0,31.999 ZM20.0,9.999 L22.0,9.999 L22.0,5.999 C22.0,5.999 22.0,5.999 18.125,5.999 C14.251,5.999 15.0,9.999 15.0,9.999 L15.0,13.0 L13.0,13.0 L13.0,17.0 L15.0,17.0 L15.0,26.0 L19.0,26.0 L19.0,17.0 L21.0,17.0 L22.0,13.0 L19.0,13.0 C19.0,13.0 19.0,11.820 19.0,10.999 C19.0,10.178 20.0,9.999 20.0,9.999 Z"/>
</symbol>


</svg>

